<?xml version="1.0" encoding="UTF-8" standalone="no"?>
<svg
   viewBox="0 0 6425.1964 6425.196"
   width="1700mm"
   height="1700mm"
   version="1.1"
   id="svg783"
   sodipodi:docname="Switching2.svg"
   inkscape:version="1.4 (86a8ad7, 2024-10-11)"
   xmlns:inkscape="http://www.inkscape.org/namespaces/inkscape"
   xmlns:sodipodi="http://sodipodi.sourceforge.net/DTD/sodipodi-0.dtd"
   xmlns="http://www.w3.org/2000/svg"
   xmlns:svg="http://www.w3.org/2000/svg">
  <sodipodi:namedview
     id="namedview783"
     pagecolor="#ffffff"
     bordercolor="#000000"
     borderopacity="0.25"
     inkscape:showpageshadow="2"
     inkscape:pageopacity="0.0"
     inkscape:pagecheckerboard="0"
     inkscape:deskcolor="#d1d1d1"
     showgrid="false"
     inkscape:zoom="0.12173362"
     inkscape:cx="3943.0355"
     inkscape:cy="3059.9598"
     inkscape:window-width="1920"
     inkscape:window-height="1009"
     inkscape:window-x="-8"
     inkscape:window-y="-8"
     inkscape:window-maximized="1"
     inkscape:current-layer="g783"
     inkscape:document-units="mm" />
  <desc
     id="desc1">Switching2.dxf - scale = 1.823139, origin = (0.000000, 0.000000), method = manual</desc>
  <defs
     id="defs4">
    <rect
       x="883.63934"
       y="3225.9734"
       width="37.030079"
       height="104.55552"
       id="rect14" />
    <rect
       x="2446.8895"
       y="779.08382"
       width="81.320958"
       height="71.881918"
       id="rect13" />
    <rect
       x="3328.3507"
       y="548.91647"
       width="111.09024"
       height="67.525439"
       id="rect12" />
    <rect
       x="4141.5602"
       y="307.85791"
       width="383.37023"
       height="87.129598"
       id="rect11" />
    <marker
       id="DistanceX"
       orient="auto"
       refX="0"
       refY="0"
       style="overflow:visible">
      <path
         d="M 3,-3 -3,3 M 0,-5 V 5"
         style="stroke:#000000;stroke-width:0.5"
         id="path1" />
    </marker>
    <pattern
       id="Hatch"
       patternUnits="userSpaceOnUse"
       width="8"
       height="8"
       x="0"
       y="0">
      <path
         d="M8 4 l-4,4"
         stroke="#000000"
         stroke-width="0.25"
         linecap="square"
         id="path2" />
      <path
         d="M6 2 l-4,4"
         stroke="#000000"
         stroke-width="0.25"
         linecap="square"
         id="path3" />
      <path
         d="M4 0 l-4,4"
         stroke="#000000"
         stroke-width="0.25"
         linecap="square"
         id="path4" />
    </pattern>
    <symbol
       id="*MODEL_SPACE" />
    <symbol
       id="*PAPER_SPACE" />
  </defs>
  <g
     inkscape:groupmode="layer"
     inkscape:label="0"
     id="g783">
    <path
       style="fill:none;stroke:#000000"
       d="m 1147.6045,289.57714 h 903.5708"
       id="path5" />
    <path
       style="fill:none;stroke:#000000"
       d="m 1147.6045,402.99708 h 903.5708"
       id="path6" />
    <path
       style="fill:none;stroke:#000000"
       d="m 2051.1753,289.57714 h 903.58"
       id="path9" />
    <path
       style="fill:none;stroke:#000000"
       d="m 2051.1753,402.99708 h 903.58"
       id="path10" />
    <path
       style="fill:none;stroke:#000000"
       d="m 2954.7553,289.57714 h 903.57"
       id="path13" />
    <path
       style="fill:none;stroke:#000000"
       d="m 2954.7553,402.99708 h 903.57"
       id="path14" />
    <path
       style="fill:none;stroke:#000000"
       d="M 3858.3253,402.99708 V 289.57714"
       id="path16" />
    <path
       style="fill:none;stroke:#000000"
       d="m 4763.7953,289.57714 h -69.95"
       id="path17" />
    <path
       style="fill:none;stroke:#000000"
       d="m 3878.4102,402.96516 -18.1949,5.70192"
       id="path30"
       sodipodi:nodetypes="cc" />
    <path
       style="fill:none;stroke:#000000"
       d="m 4763.7953,402.99708 h -68.06"
       id="path31" />
    <path
       style="fill:none;stroke:#000000"
       d="m 4695.7353,402.99708 -68.05,1.89"
       id="path32" />
    <path
       style="fill:none;stroke:#000000"
       d="m 4627.6853,404.88708 -68.05,3.78"
       id="path33" />
    <path
       style="fill:none;stroke:#000000"
       d="m 4559.6353,408.66708 -66.16,5.66999"
       id="path34" />
    <path
       style="fill:none;stroke:#000000"
       d="m 4493.4753,414.33707 -68.05,5.67"
       id="path35" />
    <path
       style="fill:none;stroke:#000000"
       d="m 4425.4253,420.00707 -66.16,7.56"
       id="path36" />
    <path
       style="fill:none;stroke:#000000"
       d="m 4359.2653,427.56707 -68.05,7.55999"
       id="path37" />
    <path
       style="fill:none;stroke:#000000"
       d="m 4291.2153,435.12706 -66.17,11.34"
       id="path38" />
    <path
       style="fill:none;stroke:#000000"
       d="m 4225.0453,446.46706 -66.16,11.34999"
       id="path39" />
    <path
       style="fill:none;stroke:#000000"
       d="m 4158.8853,457.81705 -66.16,13.23"
       id="path40" />
    <path
       style="fill:none;stroke:#000000"
       d="m 4092.7253,471.04705 -66.16,13.22999"
       id="path41" />
    <path
       style="fill:none;stroke:#000000"
       d="m 4026.5653,484.27704 -66.16,15.11999"
       id="path42" />
    <path
       style="fill:none;stroke:#000000"
       d="m 3960.4053,499.39703 -66.16,17.01999"
       id="path43" />
    <path
       style="fill:none;stroke:#000000"
       d="m 3894.2453,516.41702 -5.67,1.89"
       id="path44" />
    <path
       style="fill:none;stroke:#000000"
       d="m 4763.7953,402.99708 h -905.47"
       id="path45" />
    <path
       style="fill:none;stroke:#000000"
       d="m 4763.7953,289.57714 h -905.47"
       id="path46" />
    <path
       style="fill:none;stroke:#000000"
       d="m 4763.7953,402.99708 h -68.06"
       id="path61" />
    <path
       style="fill:none;stroke:#000000"
       d="m 3894.2453,516.41702 -5.67,1.89"
       id="path74" />
    <path
       style="fill:none;stroke:#000000"
       d="m 3894.2453,516.41702 -5.67,1.89"
       id="path104" />
    <path
       style="fill:none;stroke:#000000"
       d="m 3894.2453,516.41702 -27.8154,7.6986"
       id="path134"
       sodipodi:nodetypes="cc" />
    <path
       style="fill:none;stroke:#000000"
       d="M 4763.7953,402.99708 V 289.57714"
       id="path137" />
    <path
       style="fill:none;stroke:#000000"
       d="M 3858.3253,289.57714 V 402.99708"
       id="path138" />
    <path
       style="fill:none;stroke:#000000"
       d="m 3860.2153,408.66708 28.36,109.63994"
       id="path139" />
    <path
       style="fill:none;stroke:#000000"
       d="m 3890.4653,637.39696 h -903.58"
       id="path140" />
    <path
       style="fill:none;stroke:#000000"
       d="m 3890.4653,523.97702 h -903.58"
       id="path141" />
    <path
       style="fill:none;stroke:#000000"
       d="m 3860.2153,408.66708 -66.16,17.00999"
       id="path156" />
    <path
       style="fill:none;stroke:#000000"
       d="m 3794.0553,425.67707 -66.16,15.11999"
       id="path157" />
    <path
       style="fill:none;stroke:#000000"
       d="m 3727.8953,440.79706 -64.27,15.11999"
       id="path158" />
    <path
       style="fill:none;stroke:#000000"
       d="m 3663.6253,455.91705 -68.05,11.35"
       id="path159" />
    <path
       style="fill:none;stroke:#000000"
       d="m 3595.5753,467.26705 -66.16,11.33999"
       id="path160" />
    <path
       style="fill:none;stroke:#000000"
       d="m 3529.4153,478.60704 -66.17,11.34"
       id="path161" />
    <path
       style="fill:none;stroke:#000000"
       d="m 3463.2453,489.94704 -66.16,9.44999"
       id="path162" />
    <path
       style="fill:none;stroke:#000000"
       d="m 3397.0853,499.39703 -68.05,7.56"
       id="path163" />
    <path
       style="fill:none;stroke:#000000"
       d="m 3329.0353,506.95703 -68.05,5.66999"
       id="path164" />
    <path
       style="fill:none;stroke:#000000"
       d="m 3260.9853,512.62702 -66.16,3.79"
       id="path165" />
    <path
       style="fill:none;stroke:#000000"
       d="m 3194.8253,516.41702 -68.05,3.78"
       id="path166" />
    <path
       style="fill:none;stroke:#000000"
       d="m 3126.7753,520.19702 -68.05,1.89"
       id="path167" />
    <path
       style="fill:none;stroke:#000000"
       d="m 3058.7253,522.08702 -66.17,1.89"
       id="path168" />
    <path
       style="fill:none;stroke:#000000"
       d="m 2992.5553,523.97702 h -5.67"
       id="path169" />
    <path
       style="fill:none;stroke:#000000"
       d="m 3015.2453,752.7069 66.16,-17.01999"
       id="path170" />
    <path
       style="fill:none;stroke:#000000"
       d="m 3081.4053,735.68691 66.16,-15.11999"
       id="path171" />
    <path
       style="fill:none;stroke:#000000"
       d="m 3147.5653,720.56692 66.16,-15.12"
       id="path172" />
    <path
       style="fill:none;stroke:#000000"
       d="m 3213.7253,705.44692 66.16,-13.22999"
       id="path173" />
    <path
       style="fill:none;stroke:#000000"
       d="m 3279.8853,692.21693 66.16,-11.34999"
       id="path174" />
    <path
       style="fill:none;stroke:#000000"
       d="m 3346.0453,680.86694 66.17,-9.45"
       id="path175" />
    <path
       style="fill:none;stroke:#000000"
       d="m 3412.2153,671.41694 68.05,-9.44999"
       id="path176" />
    <path
       style="fill:none;stroke:#000000"
       d="m 3480.2653,661.96695 66.16,-7.56"
       id="path177" />
    <path
       style="fill:none;stroke:#000000"
       d="m 3546.4253,654.40695 68.05,-5.67"
       id="path178" />
    <path
       style="fill:none;stroke:#000000"
       d="m 3614.4753,648.73695 66.16,-5.66999"
       id="path179" />
    <path
       style="fill:none;stroke:#000000"
       d="m 3680.6353,643.06696 68.05,-3.78"
       id="path180" />
    <path
       style="fill:none;stroke:#000000"
       d="m 3748.6853,639.28696 68.05,-1.89"
       id="path181" />
    <path
       style="fill:none;stroke:#000000"
       d="m 3816.7353,637.39696 h 66.17"
       id="path182" />
    <path
       style="fill:none;stroke:#000000"
       d="m 3882.9053,637.39696 h 7.56"
       id="path183" />
    <path
       style="fill:none;stroke:#000000"
       d="m 2992.5553,523.97702 h -5.67"
       id="path197" />
    <path
       style="fill:none;stroke:#000000"
       d="m 3882.9053,637.39696 h 7.56"
       id="path211" />
    <path
       style="fill:none;stroke:#000000"
       d="m 2992.5553,523.97702 h -5.67"
       id="path225" />
    <path
       style="fill:none;stroke:#000000"
       d="m 3882.9053,637.39696 h 7.56"
       id="path239" />
    <path
       style="fill:none;stroke:#000000"
       d="M 3890.4653,637.39696 V 523.97702"
       id="path242" />
    <path
       style="fill:none;stroke:#000000;stroke-width:1.02597"
       d="M 2986.8853,523.97702 V 643.36546"
       id="path243" />
    <path
       style="fill:none;stroke:#000000"
       d="m 2986.8853,643.06696 28.36,109.63994"
       id="path247" />
    <path
       style="fill:none;stroke:#000000"
       d="m 2992.5553,523.97702 h -5.67"
       id="path267" />
    <path
       style="fill:none;stroke:#000000"
       d="m 3882.9053,637.39696 h 7.56"
       id="path281" />
    <path
       style="fill:none;stroke:#000000"
       d="m 3890.4653,523.97702 h 903.57"
       id="path282" />
    <path
       style="fill:none;stroke:#000000"
       d="m 3890.4653,637.39696 h 903.57"
       id="path283" />
    <path
       style="fill:none;stroke:#000000"
       d="M 3890.4653,523.97702 V 637.39696"
       id="path284" />
    <path
       style="fill:none;stroke:#000000"
       d="m 4794.0353,523.97702 h 903.58"
       id="path286" />
    <path
       style="fill:none;stroke:#000000"
       d="m 4794.0353,637.39696 h 903.58"
       id="path287" />
    <path
       style="fill:none;stroke:#000000"
       d="M 5697.6153,637.39696 V 523.97702"
       id="path289" />
    <path
       style="fill:none;stroke:#000000"
       d="m 4763.7953,289.57714 h 903.57"
       id="path290" />
    <path
       style="fill:none;stroke:#000000"
       d="m 4763.7953,402.99708 h 903.57"
       id="path291" />
    <path
       style="fill:none;stroke:#000000"
       d="M 4763.7953,289.57714 V 402.99708"
       id="path292" />
    <path
       style="fill:none;stroke:#000000"
       d="M 5667.3653,402.99708 V 289.57714"
       id="path293" />
    <path
       style="fill:none;stroke:#000000"
       d="M 2113.5553,871.79641 H 1209.9855"
       id="path294" />
    <path
       style="fill:none;stroke:#000000"
       d="M 2113.5553,758.3769 H 1209.9855"
       id="path295" />
    <path
       style="fill:none;stroke:#000000;stroke-width:1.01878"
       d="M 2113.5553,876.09632 V 758.3769"
       id="path296" />
    <path
       style="fill:none;stroke:#000000"
       d="m 2986.8853,637.39696 h -905.46"
       id="path298" />
    <path
       style="fill:none;stroke:#000000"
       d="m 2986.8853,523.97702 h -905.46"
       id="path299" />
    <path
       style="fill:none;stroke:#000000"
       d="M 2081.4253,637.39696 H 1177.8495"
       id="path302" />
    <path
       style="fill:none;stroke:#000000"
       d="M 2081.4253,523.97702 H 1177.8495"
       id="path303" />
    <path
       style="fill:none;stroke:#000000"
       d="m 2986.8853,643.06696 -66.16,17.00999"
       id="path320" />
    <path
       style="fill:none;stroke:#000000"
       d="m 2920.7253,660.07695 -64.27,15.11999"
       id="path321" />
    <path
       style="fill:none;stroke:#000000"
       d="m 2856.4553,675.19694 -66.16,13.22999"
       id="path322" />
    <path
       style="fill:none;stroke:#000000"
       d="m 2790.2953,688.42693 -66.16,13.24"
       id="path323" />
    <path
       style="fill:none;stroke:#000000"
       d="m 2724.1353,701.66693 -68.05,11.33999"
       id="path324" />
    <path
       style="fill:none;stroke:#000000"
       d="m 2656.0853,713.00692 -66.16,11.33999"
       id="path325" />
    <path
       style="fill:none;stroke:#000000"
       d="m 2589.9253,724.34691 -66.17,7.56"
       id="path326" />
    <path
       style="fill:none;stroke:#000000"
       d="m 2523.7553,731.90691 -68.05,7.56"
       id="path327" />
    <path
       style="fill:none;stroke:#000000"
       d="m 2455.7053,739.46691 -66.16,7.55999"
       id="path328" />
    <path
       style="fill:none;stroke:#000000"
       d="m 2389.5453,747.0269 -68.05,3.79"
       id="path329" />
    <path
       style="fill:none;stroke:#000000"
       d="m 2321.4953,750.8169 -68.05,3.78"
       id="path330" />
    <path
       style="fill:none;stroke:#000000"
       d="m 2253.4453,754.5969 -66.16,1.89"
       id="path331" />
    <path
       style="fill:none;stroke:#000000"
       d="m 2187.2853,756.4869 -68.05,1.89"
       id="path332" />
    <path
       style="fill:none;stroke:#000000"
       d="m 2119.2353,758.3769 h -5.68"
       id="path333" />
    <path
       style="fill:none;stroke:#000000"
       d="m 3015.2453,752.7069 -871.44,232.50989"
       id="path334" />
    <path
       style="fill:none;stroke:#000000"
       d="m 2119.2353,758.3769 h -5.68"
       id="path363" />
    <path
       style="fill:none;stroke:#000000"
       d="m 2119.2353,758.3769 h -5.68"
       id="path393" />
    <path
       style="fill:none;stroke:#000000"
       d="m 2119.2353,758.3769 h -5.68"
       id="path423" />
    <path
       style="fill:none;stroke:#000000"
       d="m 2113.5553,875.57642 30.25,109.64037"
       id="path427" />
    <path
       style="fill:none;stroke:#000000"
       d="M 1177.8495,637.39696 H 773.32086"
       id="path429" />
    <path
       style="fill:none;stroke:#000000"
       d="M 1177.8495,523.97702 H 773.32086"
       id="path430" />
    <path
       style="fill:none;stroke:#000000"
       d="M 773.32086,523.97702 V 637.39696"
       id="path432" />
    <path
       style="fill:none;stroke:#000000"
       d="M 1147.6045,402.99708 H 741.18536"
       id="path433" />
    <path
       style="fill:none;stroke:#000000"
       d="M 1147.6045,289.57714 H 741.18536"
       id="path434" />
    <path
       style="fill:none;stroke:#000000"
       d="M 741.18536,289.57714 V 402.99708"
       id="path436" />
    <path
       style="fill:none;stroke:#000000"
       d="M 1209.9855,871.79641 H 803.56643"
       id="path437" />
    <path
       style="fill:none;stroke:#000000"
       d="M 1209.9855,758.3769 H 803.56643"
       id="path438" />
    <path
       style="fill:none;stroke:#000000"
       d="M 803.56643,758.3769 V 871.79641"
       id="path440" />
    <path
       style="fill:none;stroke:#000000"
       d="m 2113.5553,875.57642 -32.13,9.45001"
       id="path441"
       sodipodi:nodetypes="cc" />
    <path
       style="fill:none;stroke:#000000"
       d="m 2081.4253,885.02643 -30.25,9.45001"
       id="path442" />
    <path
       style="fill:none;stroke:#000000"
       d="m 2051.1753,894.47644 -32.13,9.45001"
       id="path443" />
    <path
       style="fill:none;stroke:#000000"
       d="m 2019.0453,903.92645 -32.14,11.34003"
       id="path444" />
    <path
       style="fill:none;stroke:#000000"
       d="m 1986.9053,915.26648 -30.24,11.35003"
       id="path445" />
    <path
       style="fill:none;stroke:#000000"
       d="m 1956.6653,926.61651 -30.25,13.23013"
       id="path446" />
    <path
       style="fill:none;stroke:#000000"
       d="m 1926.4153,939.84664 -30.24,11.34003"
       id="path447" />
    <path
       style="fill:none;stroke:#000000"
       d="m 1896.1753,951.18667 -30.25,13.23003"
       id="path448" />
    <path
       style="fill:none;stroke:#000000"
       d="m 1865.9253,964.4167 -30.24,15.12013"
       id="path449" />
    <path
       style="fill:none;stroke:#000000"
       d="m 1835.6853,979.53683 -30.25,13.23986"
       id="path450" />
    <path
       style="fill:none;stroke:#000000"
       d="m 1805.4353,992.77669 -30.24,15.11971"
       id="path451" />
    <path
       style="fill:none;stroke:#000000"
       d="m 1775.1953,1007.8964 -28.36,15.12"
       id="path452" />
    <path
       style="fill:none;stroke:#000000"
       d="m 1746.8353,1023.0164 -28.35,17.0095"
       id="path453" />
    <path
       style="fill:none;stroke:#000000"
       d="m 1718.4853,1040.0259 -28.36,17.0199"
       id="path454" />
    <path
       style="fill:none;stroke:#000000"
       d="m 1690.1253,1057.0458 -28.3526,17.0098"
       id="path455" />
    <path
       style="fill:none;stroke:#000000"
       d="m 1661.7727,1074.0556 -28.3551,17.0096"
       id="path456" />
    <path
       style="fill:none;stroke:#000000"
       d="m 1633.4176,1091.0652 -26.4649,18.91"
       id="path457" />
    <path
       style="fill:none;stroke:#000000"
       d="m 1606.9527,1109.9752 -28.354,18.9"
       id="path458" />
    <path
       style="fill:none;stroke:#000000"
       d="m 1578.5987,1128.8752 -26.4648,18.8997"
       id="path459" />
    <path
       style="fill:none;stroke:#000000"
       d="m 1552.1339,1147.7749 -26.464,20.8006"
       id="path460" />
    <path
       style="fill:none;stroke:#000000"
       d="m 1525.6699,1168.5755 -24.5751,20.79"
       id="path461" />
    <path
       style="fill:none;stroke:#000000"
       d="m 1501.0948,1189.3655 -26.4641,20.79"
       id="path462" />
    <path
       style="fill:none;stroke:#000000"
       d="m 1474.6307,1210.1555 -24.574,22.69"
       id="path463" />
    <path
       style="fill:none;stroke:#000000"
       d="m 1450.0567,1232.8455 -24.574,20.79"
       id="path464" />
    <path
       style="fill:none;stroke:#000000"
       d="m 1425.4827,1253.6355 -24.5751,22.68"
       id="path465" />
    <path
       style="fill:none;stroke:#000000"
       d="m 1400.9076,1276.3155 -22.684,22.69"
       id="path466" />
    <path
       style="fill:none;stroke:#000000"
       d="m 1378.2236,1299.0055 -5.67,5.67"
       id="path467" />
    <path
       style="fill:none;stroke:#000000"
       d="m 2143.8053,985.21679 -30.25,9.4499"
       id="path468" />
    <path
       style="fill:none;stroke:#000000"
       d="m 2113.5553,994.66669 -30.24,7.55971"
       id="path469" />
    <path
       style="fill:none;stroke:#000000"
       d="m 2083.3153,1002.2264 -28.36,9.45"
       id="path470" />
    <path
       style="fill:none;stroke:#000000"
       d="m 2054.9553,1011.6764 -30.24,11.34"
       id="path471" />
    <path
       style="fill:none;stroke:#000000"
       d="m 2024.7153,1023.0164 -28.36,9.4496"
       id="path472" />
    <path
       style="fill:none;stroke:#000000"
       d="m 1996.3553,1032.466 -28.35,11.3499"
       id="path473" />
    <path
       style="fill:none;stroke:#000000"
       d="m 1968.0053,1043.8159 -28.35,11.3399"
       id="path474" />
    <path
       style="fill:none;stroke:#000000"
       d="m 1939.6553,1055.1558 -28.36,13.23"
       id="path475" />
    <path
       style="fill:none;stroke:#000000"
       d="m 1911.2953,1068.3858 -28.35,13.2295"
       id="path476" />
    <path
       style="fill:none;stroke:#000000"
       d="m 1882.9453,1081.6153 -26.47,13.2299"
       id="path477" />
    <path
       style="fill:none;stroke:#000000"
       d="m 1856.4753,1094.8452 -28.35,13.24"
       id="path478" />
    <path
       style="fill:none;stroke:#000000"
       d="m 1828.1253,1108.0852 -26.47,15.12"
       id="path479" />
    <path
       style="fill:none;stroke:#000000"
       d="m 1801.6553,1123.2052 -26.46,15.12"
       id="path480" />
    <path
       style="fill:none;stroke:#000000"
       d="m 1775.1953,1138.3252 -26.47,15.1197"
       id="path481" />
    <path
       style="fill:none;stroke:#000000"
       d="m 1748.7253,1153.4449 -26.46,17.0206"
       id="path482" />
    <path
       style="fill:none;stroke:#000000"
       d="m 1722.2653,1170.4655 -26.47,17.01"
       id="path483" />
    <path
       style="fill:none;stroke:#000000"
       d="m 1695.7953,1187.4755 -24.5716,17.01"
       id="path484" />
    <path
       style="fill:none;stroke:#000000"
       d="m 1671.2237,1204.4855 -26.4641,17.02"
       id="path485" />
    <path
       style="fill:none;stroke:#000000"
       d="m 1644.7596,1221.5055 -24.574,18.9"
       id="path486" />
    <path
       style="fill:none;stroke:#000000"
       d="m 1620.1856,1240.4055 -24.5739,17.01"
       id="path487" />
    <path
       style="fill:none;stroke:#000000"
       d="m 1595.6117,1257.4155 -24.5749,20.79"
       id="path488" />
    <path
       style="fill:none;stroke:#000000"
       d="m 1571.0368,1278.2055 -22.6839,18.91"
       id="path489" />
    <path
       style="fill:none;stroke:#000000"
       d="m 1548.3529,1297.1155 -22.683,20.79"
       id="path490" />
    <path
       style="fill:none;stroke:#000000"
       d="m 1525.6699,1317.9055 -24.5751,18.9"
       id="path491" />
    <path
       style="fill:none;stroke:#000000"
       d="m 1501.0948,1336.8055 -20.7931,22.69"
       id="path492" />
    <path
       style="fill:none;stroke:#000000"
       d="m 1480.3017,1359.4955 -22.684,20.79"
       id="path493" />
    <path
       style="fill:none;stroke:#000000"
       d="m 1457.6177,1380.2855 -3.781,3.78"
       id="path494" />
    <path
       style="fill:none;stroke:#000000"
       d="m 1372.5536,1304.6755 -22.684,22.68"
       id="path497" />
    <path
       style="fill:none;stroke:#000000"
       d="m 1349.8696,1327.3555 -22.684,24.58"
       id="path498" />
    <path
       style="fill:none;stroke:#000000"
       d="m 1327.1856,1351.9355 -22.684,24.57"
       id="path499" />
    <path
       style="fill:none;stroke:#000000"
       d="m 1304.5016,1376.5055 -20.794,24.58"
       id="path500" />
    <path
       style="fill:none;stroke:#000000"
       d="m 1283.7076,1401.0855 -20.793,24.57"
       id="path501" />
    <path
       style="fill:none;stroke:#000000"
       d="m 1262.9146,1425.6555 -20.794,26.46"
       id="path502" />
    <path
       style="fill:none;stroke:#000000"
       d="m 1242.1206,1452.1155 -20.7931,26.47"
       id="path503" />
    <path
       style="fill:none;stroke:#000000"
       d="m 1221.3275,1478.5855 -18.903,26.46"
       id="path504" />
    <path
       style="fill:none;stroke:#000000"
       d="m 1202.4245,1505.0455 -18.904,26.47"
       id="path505" />
    <path
       style="fill:none;stroke:#000000"
       d="m 1183.5205,1531.5155 -18.903,28.35"
       id="path506" />
    <path
       style="fill:none;stroke:#000000"
       d="m 1164.6175,1559.8655 -18.903,26.47"
       id="path507" />
    <path
       style="fill:none;stroke:#000000"
       d="m 1145.7145,1586.3355 -17.013,28.35"
       id="path508" />
    <path
       style="fill:none;stroke:#000000"
       d="m 1128.7015,1614.6855 -17.013,28.36"
       id="path509" />
    <path
       style="fill:none;stroke:#000000"
       d="m 1111.6885,1643.0455 -15.122,28.35"
       id="path510" />
    <path
       style="fill:none;stroke:#000000"
       d="m 1096.5665,1671.3955 -17.013,30.25"
       id="path511" />
    <path
       style="fill:none;stroke:#000000"
       d="m 1079.5535,1701.6455 -15.1233,28.35"
       id="path512" />
    <path
       style="fill:none;stroke:#000000"
       d="m 1064.4302,1729.9955 -13.2321,30.25"
       id="path513" />
    <path
       style="fill:none;stroke:#000000"
       d="m 1051.1981,1760.2455 -15.123,30.24"
       id="path514" />
    <path
       style="fill:none;stroke:#000000"
       d="m 1036.0751,1790.4855 -13.232,30.25"
       id="path515" />
    <path
       style="fill:none;stroke:#000000"
       d="m 1022.8431,1820.7355 -11.342,30.24"
       id="path516" />
    <path
       style="fill:none;stroke:#000000"
       d="m 1011.5011,1850.9755 -13.23186,30.25"
       id="path517" />
    <path
       style="fill:none;stroke:#000000"
       d="m 998.26924,1881.2255 -11.34181,32.13"
       id="path518" />
    <path
       style="fill:none;stroke:#000000"
       d="m 986.92743,1913.3555 -11.342,30.25"
       id="path519" />
    <path
       style="fill:none;stroke:#000000"
       d="m 975.58543,1943.6055 -9.452,32.13"
       id="path520" />
    <path
       style="fill:none;stroke:#000000"
       d="m 966.13343,1975.7355 -9.451,30.25"
       id="path521" />
    <path
       style="fill:none;stroke:#000000"
       d="m 956.68243,2005.9855 -9.452,32.13"
       id="path522" />
    <path
       style="fill:none;stroke:#000000"
       d="m 947.23043,2038.1155 -1.89,5.68"
       id="path523" />
    <path
       style="fill:none;stroke:#000000"
       d="m 1453.8367,1384.0655 -22.683,22.69"
       id="path524" />
    <path
       style="fill:none;stroke:#000000"
       d="m 1431.1537,1406.7555 -20.7941,20.79"
       id="path525" />
    <path
       style="fill:none;stroke:#000000"
       d="m 1410.3596,1427.5455 -20.794,24.57"
       id="path526" />
    <path
       style="fill:none;stroke:#000000"
       d="m 1389.5656,1452.1155 -18.903,22.69"
       id="path527" />
    <path
       style="fill:none;stroke:#000000"
       d="m 1370.6626,1474.8055 -20.793,22.68"
       id="path528" />
    <path
       style="fill:none;stroke:#000000"
       d="m 1349.8696,1497.4855 -18.904,24.58"
       id="path529" />
    <path
       style="fill:none;stroke:#000000"
       d="m 1330.9656,1522.0655 -18.903,24.57"
       id="path530" />
    <path
       style="fill:none;stroke:#000000"
       d="m 1312.0626,1546.6355 -17.013,24.57"
       id="path531" />
    <path
       style="fill:none;stroke:#000000"
       d="m 1295.0496,1571.2055 -18.903,24.58"
       id="path532" />
    <path
       style="fill:none;stroke:#000000"
       d="m 1276.1466,1595.7855 -17.013,26.46"
       id="path533" />
    <path
       style="fill:none;stroke:#000000"
       d="m 1259.1336,1622.2455 -17.013,24.58"
       id="path534" />
    <path
       style="fill:none;stroke:#000000"
       d="m 1242.1206,1646.8255 -15.122,26.46"
       id="path535" />
    <path
       style="fill:none;stroke:#000000"
       d="m 1226.9986,1673.2855 -17.0131,26.47"
       id="path536" />
    <path
       style="fill:none;stroke:#000000"
       d="m 1209.9855,1699.7555 -15.123,26.46"
       id="path537" />
    <path
       style="fill:none;stroke:#000000"
       d="m 1194.8625,1726.2155 -15.122,28.36"
       id="path538" />
    <path
       style="fill:none;stroke:#000000"
       d="m 1179.7405,1754.5755 -13.233,26.46"
       id="path539" />
    <path
       style="fill:none;stroke:#000000"
       d="m 1166.5075,1781.0355 -13.232,28.36"
       id="path540" />
    <path
       style="fill:none;stroke:#000000"
       d="m 1153.2755,1809.3955 -13.232,28.35"
       id="path541" />
    <path
       style="fill:none;stroke:#000000"
       d="m 1140.0435,1837.7455 -13.232,26.46"
       id="path542" />
    <path
       style="fill:none;stroke:#000000"
       d="m 1126.8115,1864.2055 -11.342,28.36"
       id="path543" />
    <path
       style="fill:none;stroke:#000000"
       d="m 1115.4695,1892.5655 -11.342,30.24"
       id="path544" />
    <path
       style="fill:none;stroke:#000000"
       d="m 1104.1275,1922.8055 -9.452,28.36"
       id="path545" />
    <path
       style="fill:none;stroke:#000000"
       d="m 1094.6755,1951.1655 -11.342,28.35"
       id="path546" />
    <path
       style="fill:none;stroke:#000000"
       d="m 1083.3335,1979.5155 -9.451,30.25"
       id="path547" />
    <path
       style="fill:none;stroke:#000000"
       d="m 1073.8825,2009.7655 -9.4523,28.35"
       id="path548" />
    <path
       style="fill:none;stroke:#000000"
       d="m 1064.4302,2038.1155 -7.5611,30.25"
       id="path549" />
    <path
       style="fill:none;stroke:#000000"
       d="m 1056.8691,2068.3655 -1.891,5.67"
       id="path550" />
    <path
       style="fill:none;stroke:#000000"
       d="m 945.34043,2043.7955 -17.013,68.05"
       id="path553" />
    <path
       style="fill:none;stroke:#000000"
       d="m 928.32743,2111.8455 -15.123,68.05"
       id="path554" />
    <path
       style="fill:none;stroke:#000000"
       d="m 913.20443,2179.8955 -15.122,68.05"
       id="path555" />
    <path
       style="fill:none;stroke:#000000"
       d="m 898.08243,2247.9455 -13.233,68.05"
       id="path556" />
    <path
       style="fill:none;stroke:#000000"
       d="m 884.84943,2315.9955 -13.232,69.94"
       id="path557" />
    <path
       style="fill:none;stroke:#000000"
       d="m 871.61743,2385.9355 -9.451,68.06"
       id="path558" />
    <path
       style="fill:none;stroke:#000000"
       d="m 862.16643,2453.9955 -9.452,69.94"
       id="path559" />
    <path
       style="fill:none;stroke:#000000"
       d="m 852.71443,2523.9355 -7.561,68.05"
       id="path560" />
    <path
       style="fill:none;stroke:#000000"
       d="m 845.15343,2591.9855 -5.671,69.94"
       id="path561" />
    <path
       style="fill:none;stroke:#000000"
       d="m 839.48243,2661.9255 -5.671,69.94"
       id="path562" />
    <path
       style="fill:none;stroke:#000000"
       d="m 833.81143,2731.8655 -3.781,69.94"
       id="path563" />
    <path
       style="fill:none;stroke:#000000"
       d="m 830.03043,2801.8055 -1.89,69.95"
       id="path564" />
    <path
       style="fill:none;stroke:#000000"
       d="m 828.14043,2871.7555 -1.891,69.94"
       id="path565" />
    <path
       style="fill:none;stroke:#000000"
       d="m 826.24943,2941.6955 v 5.67"
       id="path566" />
    <path
       style="fill:none;stroke:#000000"
       d="m 1054.9781,2074.0355 -17.012,64.27"
       id="path567" />
    <path
       style="fill:none;stroke:#000000"
       d="m 1037.9661,2138.3055 -15.123,66.16"
       id="path568" />
    <path
       style="fill:none;stroke:#000000"
       d="m 1022.8431,2204.4655 -13.232,66.16"
       id="path569" />
    <path
       style="fill:none;stroke:#000000"
       d="m 1009.6111,2270.6255 -13.23272,66.17"
       id="path570" />
    <path
       style="fill:none;stroke:#000000"
       d="m 996.37838,2336.7955 -11.34195,66.16"
       id="path571" />
    <path
       style="fill:none;stroke:#000000"
       d="m 985.03643,2402.9555 -11.341,68.05"
       id="path572" />
    <path
       style="fill:none;stroke:#000000"
       d="m 973.69543,2471.0055 -7.562,66.16"
       id="path573" />
    <path
       style="fill:none;stroke:#000000"
       d="m 966.13343,2537.1655 -7.561,68.05"
       id="path574" />
    <path
       style="fill:none;stroke:#000000"
       d="m 958.57243,2605.2155 -7.561,66.16"
       id="path575" />
    <path
       style="fill:none;stroke:#000000"
       d="m 951.01143,2671.3755 -3.781,68.05"
       id="path576" />
    <path
       style="fill:none;stroke:#000000"
       d="m 947.23043,2739.4255 -3.781,66.17"
       id="path577" />
    <path
       style="fill:none;stroke:#000000"
       d="m 943.44943,2805.5955 -1.89,68.05"
       id="path578" />
    <path
       style="fill:none;stroke:#000000"
       d="m 941.55943,2873.6455 -1.89,68.05"
       id="path579" />
    <path
       style="fill:none;stroke:#000000"
       d="m 939.66943,2941.6955 v 5.67"
       id="path580" />
    <path
       style="fill:none;stroke:#000000"
       d="m 826.24943,2947.3655 h 113.42"
       id="path582" />
    <path
       style="fill:none;stroke:#000000;stroke-width:1.21063"
       d="m 940.10563,3833.1987 5.31124,18.5492"
       id="path596"
       sodipodi:nodetypes="cc" />
    <path
       style="fill:none;stroke:#000000"
       d="m 939.66943,2947.3655 1.89,68.05"
       id="path597" />
    <path
       style="fill:none;stroke:#000000"
       d="m 941.55943,3015.4155 1.89,66.16"
       id="path598" />
    <path
       style="fill:none;stroke:#000000"
       d="m 943.44943,3081.5755 3.781,68.05"
       id="path599" />
    <path
       style="fill:none;stroke:#000000"
       d="m 947.23043,3149.6255 3.781,68.06"
       id="path600" />
    <path
       style="fill:none;stroke:#000000"
       d="m 951.01143,3217.6855 5.671,66.16"
       id="path601" />
    <path
       style="fill:none;stroke:#000000"
       d="m 956.68243,3283.8455 7.561,68.05"
       id="path602" />
    <path
       style="fill:none;stroke:#000000"
       d="m 964.24343,3351.8955 9.452,66.16"
       id="path603" />
    <path
       style="fill:none;stroke:#000000"
       d="m 973.69543,3418.0555 9.451,68.05"
       id="path604" />
    <path
       style="fill:none;stroke:#000000"
       d="m 983.14643,3486.1055 11.34199,66.16"
       id="path605" />
    <path
       style="fill:none;stroke:#000000"
       d="m 994.48842,3552.2655 13.23168,66.16"
       id="path606" />
    <path
       style="fill:none;stroke:#000000"
       d="m 1007.7201,3618.4255 13.233,66.16"
       id="path607" />
    <path
       style="fill:none;stroke:#000000"
       d="m 1020.9531,3684.5855 17.013,66.17"
       id="path608" />
    <path
       style="fill:none;stroke:#000000"
       d="m 1037.9661,3750.7555 15.122,64.27"
       id="path609" />
    <path
       style="fill:none;stroke:#000000"
       d="m 1053.0881,3815.0255 1.89,5.67"
       id="path610" />
    <path
       style="fill:none;stroke:#000000"
       d="m 939.66943,2947.3655 v 903.57"
       id="path611" />
    <path
       style="fill:none;stroke:#000000"
       d="M 2986.8138,643.05566 2113.5694,875.71778"
       id="path611-0"
       sodipodi:nodetypes="cc" />
    <path
       style="fill:none;stroke:#000000"
       d="m 826.24943,2947.3655 v 903.57"
       id="path612" />
    <path
       style="fill:none;stroke:#000000"
       d="m 826.24943,3850.9355 h 113.42"
       id="path704" />
    <path
       style="fill:none;stroke:#000000"
       d="m 945.34043,3850.9355 109.63767,-30.24"
       id="path705" />
    <path
       style="fill:none;stroke:#000000"
       d="m 1054.9781,3820.6955 17.0134,68.05"
       id="path706" />
    <path
       style="fill:none;stroke:#000000"
       d="m 1071.9915,3888.7455 17.013,68.0499"
       id="path707" />
    <path
       style="fill:none;stroke:#000000"
       d="m 1089.0045,3956.7954 15.123,68.0499"
       id="path708" />
    <path
       style="fill:none;stroke:#000000"
       d="m 1104.1275,4024.8453 13.232,68.0503"
       id="path709" />
    <path
       style="fill:none;stroke:#000000"
       d="m 1117.3595,4092.8956 11.342,69.9466"
       id="path710" />
    <path
       style="fill:none;stroke:#000000"
       d="m 1128.7015,4162.8422 11.342,68.051"
       id="path711" />
    <path
       style="fill:none;stroke:#000000"
       d="m 1140.0435,4230.8932 7.561,69.9421"
       id="path712" />
    <path
       style="fill:none;stroke:#000000"
       d="m 1147.6045,4300.8353 9.452,68.051"
       id="path713" />
    <path
       style="fill:none;stroke:#000000"
       d="m 1157.0565,4368.8863 5.671,69.942"
       id="path714" />
    <path
       style="fill:none;stroke:#000000"
       d="m 1162.7275,4438.8283 5.671,69.9421"
       id="path715" />
    <path
       style="fill:none;stroke:#000000"
       d="m 1168.3985,4508.7704 3.78,69.942"
       id="path716" />
    <path
       style="fill:none;stroke:#000000"
       d="m 1172.1785,4578.7124 1.891,69.942"
       id="path717" />
    <path
       style="fill:none;stroke:#000000"
       d="m 1174.0695,4648.6544 v 69.9421"
       id="path718" />
    <path
       style="fill:none;stroke:#000000"
       d="m 1174.0695,4718.5965 v 5.671"
       id="path719" />
    <path
       style="fill:none;stroke:#000000"
       d="m 945.34043,3850.9355 17.013,64.27"
       id="path720" />
    <path
       style="fill:none;stroke:#000000"
       d="m 962.35343,3915.2055 15.122,66.1698"
       id="path721" />
    <path
       style="fill:none;stroke:#000000"
       d="m 977.47543,3981.3753 15.123,66.1601"
       id="path722" />
    <path
       style="fill:none;stroke:#000000"
       d="m 992.59843,4047.5354 13.23167,66.1602"
       id="path723" />
    <path
       style="fill:none;stroke:#000000"
       d="m 1005.8301,4113.6956 11.342,66.1586"
       id="path724" />
    <path
       style="fill:none;stroke:#000000"
       d="m 1017.1721,4179.8542 9.452,68.052"
       id="path725" />
    <path
       style="fill:none;stroke:#000000"
       d="m 1026.6241,4247.9062 9.451,66.1611"
       id="path726" />
    <path
       style="fill:none;stroke:#000000"
       d="m 1036.0751,4314.0673 7.561,68.052"
       id="path727" />
    <path
       style="fill:none;stroke:#000000"
       d="m 1043.6361,4382.1193 5.671,66.161"
       id="path728" />
    <path
       style="fill:none;stroke:#000000"
       d="m 1049.3071,4448.2803 5.671,68.0521"
       id="path729" />
    <path
       style="fill:none;stroke:#000000"
       d="m 1054.9781,4516.3324 3.781,66.161"
       id="path730" />
    <path
       style="fill:none;stroke:#000000"
       d="m 1058.7591,4582.4934 1.89,68.052"
       id="path731" />
    <path
       style="fill:none;stroke:#000000"
       d="m 1060.6491,4650.5454 v 68.0511"
       id="path732" />
    <path
       style="fill:none;stroke:#000000"
       d="m 1060.6491,4718.5965 v 5.671"
       id="path733" />
    <path
       style="fill:none;stroke:#000000"
       d="m 1174.0695,4724.2675 v 903.5744"
       id="path736" />
    <path
       style="fill:none;stroke:#000000"
       d="m 1060.6491,4724.2675 v 903.5744"
       id="path737" />
    <path
       style="fill:none;stroke:#000000"
       d="m 939.66943,3850.9355 v 903.577"
       id="path740" />
    <path
       style="fill:none;stroke:#000000"
       d="m 826.24943,3850.9355 v 903.577"
       id="path741" />
    <path
       style="fill:none;stroke:#000000"
       d="M 939.66943,4754.5125 V 5658.087"
       id="path744" />
    <path
       style="fill:none;stroke:#000000"
       d="M 826.24943,4754.5125 V 5658.087"
       id="path745" />
    <path
       style="fill:none;stroke:#000000"
       d="m 939.66943,5658.087 v 406.4202"
       id="path748" />
    <path
       style="fill:none;stroke:#000000"
       d="m 826.24943,5658.087 v 406.4202"
       id="path749" />
    <path
       style="fill:none;stroke:#000000"
       d="m 826.24943,6064.5072 h 113.42"
       id="path751" />
    <path
       style="fill:none;stroke:#000000"
       d="m 1174.0695,5627.8419 v 406.4194"
       id="path752" />
    <path
       style="fill:none;stroke:#000000"
       d="m 1060.6491,5627.8419 v 406.4194"
       id="path753" />
    <path
       style="fill:none;stroke:#000000"
       d="m 1060.6491,6034.2613 h 113.4204"
       id="path755" />
    <path
       style="fill:#000000"
       d="M 2988.0813,643.82371 2883.3444,730.0776"
       id="path11" />
  </g>
</svg>
